# xmcd
#
# Track frame offsets: 
#        150
#        20697
#        33387
#        59314
#        74361
#        89510
#        104205
#        119870
#        138515
#        154533
#        169500
#
# Disc length: 2601 seconds
#
# Revision: 1
# Processed by: cddbd v1.5.2PL0 Copyright (c) Steve Scherf et al.
# Submitted via: ExactAudioCopy v1.0b3
#
DISCID=9f0a270b
DTITLE=Eddie Tigner - Slippin' In
DYEAR=2009
DGENRE=Blues
TTITLE0=Heartbreak
TTITLE1=I Dare You Baby
TTITLE2=Slippin' In
TTITLE3=All Around The World
TTITLE4=Need Your Love So Bad
TTITLE5=Knock Me A Kiss
TTITLE6=River's Invitation
TTITLE7=Home At Last
TTITLE8=Brunswick Stew
TTITLE9=Did You Ever See A Monkey Play A Fiddle
TTITLE10=Please Send Me Someone To Love
EXTD=
EXTT0=
EXTT1=
EXTT2=
EXTT3=
EXTT4=
EXTT5=
EXTT6=
EXTT7=
EXTT8=
EXTT9=
EXTT10=
PLAYORDER=
